<svg id="about-hover" xmlns="http://www.w3.org/2000/svg" viewBox="0 0 16.25 16.25"><defs><style>.cls-1,.cls-2{fill:none;stroke:#333;stroke-width:0.25px;}.cls-1{stroke-linecap:round;stroke-linejoin:round;}.cls-2{stroke-miterlimit:10;}</style></defs><circle class="cls-1" cx="8.125" cy="8.125" r="8"/><path class="cls-1" d="M13.6,12.2487a2.13713,2.13713,0,0,0-.64-.32,5.15483,5.15483,0,0,0,.64-.96,4.28854,4.28854,0,0,0,0-.96s.48336-.0778.64-.32a2.84113,2.84113,0,0,0,.32-1.28c-.16518-.49066-.66179-.42376-.64-.32a6.77916,6.77916,0,0,0-.32-1.92,2.15571,2.15571,0,0,0-1.6-.64,2.1557,2.1557,0,0,0-1.6.64,6.77916,6.77916,0,0,0-.32,1.92c.0218-.10376-.47481-.17066-.64.32a2.84113,2.84113,0,0,0,.32,1.28c.15664.2422.64.32.64.32a4.28973,4.28973,0,0,0,0,.96,5.15488,5.15488,0,0,0,.64.96,2.13692,2.13692,0,0,0-.64.32" transform="translate(-3.875 -3.875)"/><polygon class="cls-2" points="7.3 13.844 7.3 10.587 6.794 10.413 6.794 13.844 7.3 13.844"/><path class="cls-1" d="M11.17559,17.71922V18.182c0,.13312-.17643.28926-.17643.28926h-.15331s-.17644-.16777-.17644-.28926v-.46281Z" transform="translate(-3.875 -3.875)"/><path class="cls-1" d="M13.3248,17.71922V18.182c0,.13312-.17643.28926-.17643.28926H12.995s-.17644-.16777-.17644-.28926v-.46281Z" transform="translate(-3.875 -3.875)"/><polygon class="cls-1" points="9.45 13.844 9.45 10.413 8.944 10.592 8.944 13.844 9.45 13.844"/><path class="cls-1" d="M12.60743,14.54313c-.17066-.01736-.45991-.2545-.61034-.2545s-.43677.23719-.59876.2545L7.99085,13.308a.41078.41078,0,0,1-.2893-.57852c.15621-.324.38762-.72026.60745-.781.14174-.0376.52929.23431.52929.23431s.30951-.45993.49464-.49754c.269-.04628.98349.43679.98349.43679a2.19836,2.19836,0,0,0,1.66614.83307A2.25913,2.25913,0,0,0,13.6863,12.122s.71448-.48595.98348-.43679c.18513.03182.49176.50332.49176.50332s.3876-.27191.52929-.23431c.21984.05786.45126.457.60745.77812a.41075.41075,0,0,1-.19266.546l-.00245.00116a.41074.41074,0,0,1-.09415.03133Z" transform="translate(-3.875 -3.875)"/></svg>