<svg id="contact" xmlns="http://www.w3.org/2000/svg" viewBox="0 0 16.25 16.25"><defs><style>.cls-1,.cls-2{fill:none;stroke:#198581;stroke-width:0.25px;}.cls-1{stroke-linecap:round;stroke-linejoin:round;}.cls-2{stroke-miterlimit:10;}</style></defs><polygon class="cls-1" points="5.541 4.471 10.72 4.471 10.72 11.78 5.531 11.78 5.541 4.471"/><circle class="cls-2" cx="8.125" cy="12.49532" r="0.40208"/><ellipse class="cls-2" cx="6.99945" cy="3.72039" rx="0.20113" ry="0.19512"/><path class="cls-2" d="M10.05405,6.7795H13.946a.65061.65061,0,0,1,.64864.65256v9.13588a.65061.65061,0,0,1-.64864.65256h-3.8919a.65061.65061,0,0,1-.64864-.65256V7.43206A.65061.65061,0,0,1,10.05405,6.7795Z" transform="translate(-3.875 -3.875)"/><path class="cls-1" d="M12.91824,7.60552a.1791.1791,0,0,1-.1946.155H11.64793a.16572.16572,0,0,1-.1922-.12828.15834.15834,0,0,1,.13573-.18165.176.176,0,0,1,.05647,0h1.07571A.1791.1791,0,0,1,12.91824,7.60552Z" transform="translate(-3.875 -3.875)"/><circle class="cls-1" cx="8.125" cy="8.125" r="8"/></svg>