<svg xmlns="http://www.w3.org/2000/svg" viewBox="0 0 16.25 16.25"><defs><style>.cls-1,.cls-2,.cls-4{fill:none;}.cls-1,.cls-2,.cls-3,.cls-4{stroke:#555;stroke-width:0.25px;}.cls-1,.cls-2,.cls-3{stroke-miterlimit:10;}.cls-2{stroke-linecap:round;}.cls-3{fill:#fff;}.cls-4{stroke-miterlimit:3;}</style></defs><g id="Layer_2" data-name="Layer 2"><g id="portfolio-hover"><circle class="cls-1" cx="8.125" cy="8.125" r="8"/><path class="cls-1" d="M11.53889,5.57366h1.56952a.3.3,0,0,1,.3.3v4.62865c-.00432.80839-.36823,1.45738-.81284,1.44961H3.65442c-.44461.00776-.80851-.64122-.81283-1.44961V5.87366a.3.3,0,0,1,.3-.3h8.3973Z"/><line class="cls-1" x1="2.84159" y1="8.44392" x2="13.40841" y2="8.44392"/><line class="cls-2" x1="7.31217" y1="7.96554" x2="8.93783" y2="7.96554"/><polyline class="cls-3" points="5.687 9.719 5.687 10.039 5.199 10.677 4.711 10.039 4.711 9.719"/><path class="cls-3" d="M5.6875,9.2418V7.9668h-.976v1.275"/><rect class="cls-3" x="4.22341" y="9.24121" width="1.9508" height="0.47838"/><polyline class="cls-3" points="11.539 9.719 11.539 10.039 11.051 10.677 10.563 10.039 10.563 9.719"/><rect class="cls-3" x="10.0758" y="9.24121" width="1.9508" height="0.47838"/><path class="cls-3" d="M11.5397,9.2418V7.9668h-.976v1.275"/><path class="cls-4" d="M6.37831,4.57329H9.87974a.25.25,0,0,1,.25.25v.75036a0,0,0,0,1,0,0H6.12831a0,0,0,0,1,0,0V4.82329A.25.25,0,0,1,6.37831,4.57329Z"/></g></g></svg>