<svg id="contact" xmlns="http://www.w3.org/2000/svg" viewBox="0 0 16.25 16.25"><defs><style>.cls-1,.cls-2{fill:none;stroke:#555;stroke-width:0.25px;}.cls-1{stroke-linecap:round;stroke-linejoin:round;}.cls-2{stroke-miterlimit:10;}</style></defs><polygon class="cls-1" points="5.541 4.471 10.72 4.471 10.72 11.78 5.531 11.78 5.541 4.471"/><circle class="cls-2" cx="8.125" cy="12.49532" r="0.40208"/><ellipse class="cls-2" cx="6.99945" cy="3.72039" rx="0.20113" ry="0.19512"/><path class="cls-2" d="M6.17905,2.9045H10.071a.65061.65061,0,0,1,.64864.65256v9.13588a.65062.65062,0,0,1-.64864.65256H6.1791a.65062.65062,0,0,1-.64864-.65256V3.55706A.65061.65061,0,0,1,6.17905,2.9045Z"/><path class="cls-1" d="M9.04324,3.73052a.1791.1791,0,0,1-.1946.155H7.77293a.16572.16572,0,0,1-.1922-.12828.15834.15834,0,0,1,.13174-.18107l.004-.00058a.176.176,0,0,1,.05647,0H8.84864A.1791.1791,0,0,1,9.04324,3.73052Z"/><circle class="cls-1" cx="8.125" cy="8.125" r="8"/></svg>