<svg id="about_2" data-name="about 2" xmlns="http://www.w3.org/2000/svg" viewBox="0 0 16.25 16.25"><defs><style>.cls-1,.cls-2{fill:none;stroke:#555;stroke-width:0.25px;}.cls-1{stroke-linecap:round;stroke-linejoin:round;}.cls-2{stroke-miterlimit:10;}</style></defs><circle class="cls-1" cx="8.125" cy="8.125" r="8"/><path class="cls-1" d="M9.725,8.3737a2.137,2.137,0,0,0-.64-.32,5.15479,5.15479,0,0,0,.64-.96,4.28845,4.28845,0,0,0,0-.96s.48336-.0778.64-.32a2.84117,2.84117,0,0,0,.32-1.28c-.16519-.49066-.66179-.42376-.64-.32a6.7795,6.7795,0,0,0-.32-1.92,2.15575,2.15575,0,0,0-1.6-.64,2.15576,2.15576,0,0,0-1.6.64,6.7795,6.7795,0,0,0-.32,1.92c.02179-.10376-.47481-.17066-.64.32a2.84117,2.84117,0,0,0,.32,1.28c.15665.2422.64.32.64.32a4.28845,4.28845,0,0,0,0,.96,5.15479,5.15479,0,0,0,.64.96,2.137,2.137,0,0,0-.64.32"/><polygon class="cls-2" points="7.3 13.844 7.3 10.587 6.794 10.413 6.794 13.844 7.3 13.844"/><path class="cls-1" d="M7.30059,13.84422V14.307c0,.13312-.17643.28926-.17643.28926H6.97084s-.17643-.16777-.17643-.28926v-.46281Z"/><path class="cls-1" d="M9.44979,13.84422V14.307c0,.13312-.17643.28926-.17643.28926H9.12s-.17643-.16777-.17643-.28926v-.46281Z"/><polygon class="cls-1" points="9.45 13.844 9.45 10.413 8.944 10.592 8.944 13.844 9.45 13.844"/><path class="cls-1" d="M8.73243,10.66813c-.17066-.01736-.45992-.2545-.61034-.2545s-.43677.23719-.59877.2545L4.11584,9.433a.41076.41076,0,0,1-.28929-.57852c.1562-.324.38761-.72026.60744-.781.14174-.0376.5293.23431.5293.23431s.30951-.45993.49463-.49754c.269-.04628.9835.43679.9835.43679a2.19833,2.19833,0,0,0,1.66614.83307A2.25916,2.25916,0,0,0,9.8113,8.247s.71447-.48595.98348-.43679c.18512.03182.49175.50332.49175.50332s.38761-.27191.5293-.23431c.21984.05786.45125.457.60744.77812a.41074.41074,0,0,1-.19266.546l-.00245.00116a.41067.41067,0,0,1-.09414.03133Z"/></svg>