<svg id="portfolio-hover" xmlns="http://www.w3.org/2000/svg" viewBox="0 0 16.25 16.25"><defs><style>.cls-1,.cls-2{fill:none;stroke:#198581;stroke-miterlimit:10;stroke-width:0.25px;}.cls-2{stroke-linecap:round;}</style></defs><path class="cls-1" d="M15.41389,12.31892h1.86952v2.71075a.80514.80514,0,0,1-.81284.79728H7.52942a.80514.80514,0,0,1-.81283-.79728V12.31892H8.58611" transform="translate(-3.875 -3.875)"/><line class="cls-1" x1="5.6865" y1="8.44392" x2="10.56349" y2="8.44392"/><path class="cls-1" d="M15.41389,12.31892h1.86952V9.56347c0-.06341-.07279-.11485-.16257-.11485H6.87915c-.08977,0-.16256.0514-.16256.11485v2.75545H8.58611" transform="translate(-3.875 -3.875)"/><line class="cls-2" x1="7.31217" y1="7.96554" x2="8.93782" y2="7.96554"/><polyline class="cls-1" points="4.711 9.241 4.711 7.966 4.385 7.966"/><polyline class="cls-1" points="5.687 9.719 5.687 10.039 5.199 10.677 4.711 10.039 4.711 9.719"/><polyline class="cls-1" points="4.629 7.966 5.768 7.966 6.012 7.966 5.687 7.966 5.687 9.241"/><rect class="cls-1" x="4.22341" y="9.24121" width="1.9508" height="0.47838"/><polyline class="cls-1" points="10.563 9.241 10.563 7.966 10.239 7.966"/><polyline class="cls-1" points="11.539 9.719 11.539 10.039 11.051 10.677 10.563 10.039 10.563 9.719"/><polyline class="cls-1" points="10.483 7.966 11.62 7.966 11.864 7.966 11.539 7.966 11.539 9.241"/><rect class="cls-1" x="10.0758" y="9.24121" width="1.9508" height="0.47838"/><path class="cls-1" d="M10.13049,9.44866h3.739V8.49191a.32206.32206,0,0,0-.32513-.31892H10.45562a.32206.32206,0,0,0-.32513.31892Z" transform="translate(-3.875 -3.875)"/><circle class="cls-1" cx="8.125" cy="8.125" r="8"/></svg>